HIERARCHY
ROOT hip
{
	OFFSET 0.000000 0.000000 0.000000 
	CHANNELS 6 Xposition Yposition Zposition Xrotation Zrotation Yrotation
	JOINT abdomen
	{
		OFFSET 0.000000 3.402643 0.000000 
		CHANNELS 3 Xrotation Zrotation Yrotation
		JOINT chest
		{
			OFFSET 0.000000 8.438565 -0.680529 
			CHANNELS 3 Xrotation Zrotation Yrotation
			JOINT neck
			{
				OFFSET 0.000000 10.207942 -0.272212 
				CHANNELS 3 Xrotation Zrotation Yrotation
				JOINT head
				{
					OFFSET 0.000000 3.130431 0.000000 
					CHANNELS 3 Xrotation Zrotation Yrotation
					End Site
					{
						OFFSET 0.000000 3.130435 0.000000 
					}
				}
			}
			JOINT lCollar
			{
				OFFSET 3.470700 6.669187 -0.816635 
				CHANNELS 3 Yrotation Zrotation Xrotation
				JOINT lShldr
				{
					OFFSET 3.198488 0.000000 0.000000 
					CHANNELS 3 Zrotation Yrotation Xrotation
					JOINT lForeArm
					{
						OFFSET 10.139888 0.000000 0.000000 
						CHANNELS 3 Yrotation Zrotation Xrotation
						JOINT lHand
						{
							OFFSET 8.370511 0.000000 0.000000 
							CHANNELS 3 Zrotation Yrotation Xrotation
							End Site
							{
								OFFSET 4.083176 0.000000 0.000000 
							}
						}
					}
				}
			}
			JOINT rCollar
			{
				OFFSET -3.470700 6.669187 -0.816635 
				CHANNELS 3 Yrotation Zrotation Xrotation
				JOINT rShldr
				{
					OFFSET -3.198488 0.000000 0.000000 
					CHANNELS 3 Zrotation Yrotation Xrotation
					JOINT rForeArm
					{
						OFFSET -10.139888 0.000000 0.000000 
						CHANNELS 3 Yrotation Zrotation Xrotation
						JOINT rHand
						{
							OFFSET -8.370511 0.000000 0.000000 
							CHANNELS 3 Zrotation Yrotation Xrotation
							End Site
							{
								OFFSET -4.083176 0.000000 0.000000 
							}
						}
					}
				}
			}
		}
	}
	JOINT lThigh
	{
		OFFSET 5.308129 -1.633274 1.361059 
		CHANNELS 3 Xrotation Zrotation Yrotation
		JOINT lShin
		{
			OFFSET -2.041588 -20.007561 0.000000 
			CHANNELS 3 Xrotation Zrotation Yrotation
			JOINT lFoot
			{
				OFFSET 0.000000 -19.190928 -1.224953 
				CHANNELS 3 Xrotation Yrotation Zrotation
				End Site
				{
					OFFSET 0.000000 -2.449906 4.627600 
				}
			}
		}
	}
	JOINT rThigh
	{
		OFFSET -5.308129 -1.633274 1.361059 
		CHANNELS 3 Xrotation Zrotation Yrotation
		JOINT rShin
		{
			OFFSET 2.041588 -20.007561 0.000000 
			CHANNELS 3 Xrotation Zrotation Yrotation
			JOINT rFoot
			{
				OFFSET 0.000000 -19.190928 -1.224953 
				CHANNELS 3 Xrotation Yrotation Zrotation
				End Site
				{
					OFFSET 0.000000 -2.449906 4.627600 
				}
			}
		}
	}
}
MOTION
Frames: 11
Frame Time: 0.033333
2.105359 191.342789 127.195457 16.499868 -1.488823 14.539417 45.517059 4.311814 -5.081096 -20.839844 0.000000 0.000000 -10.659965 17.890238 10.714050 8.586096 -4.084739 0.307924 -4.754608 -0.109225 -0.002657 -68.939812 -14.836823 18.172703 -55.195881 -32.296204 44.532169 39.056892 -24.859282 24.125435 4.754608 0.109225 -0.002676 86.551476 -0.226807 3.446605 53.836067 12.146568 51.998455 -31.622225 54.496422 44.832237 -3.445910 9.858237 3.082381 46.592808 -2.130308 -10.379906 41.864265 -8.687040 5.120907 -20.419451 -14.501446 -15.630864 35.125301 13.524634 -0.147456 -3.569884 14.957955 0.514576 
2.148633 191.835770 127.376503 16.360094 -1.021363 14.807483 45.680489 3.803530 -5.273987 -20.839844 0.000000 0.000000 -10.332960 17.780998 12.136747 8.586096 -4.084739 0.307924 -4.754608 -0.109225 -0.002657 -70.411232 -15.716629 18.763905 -50.876812 -30.354002 46.127853 39.207428 -26.128080 22.945185 4.754608 0.109225 -0.002676 87.674416 1.397907 3.735576 49.411465 10.289233 51.981377 -32.111481 55.958817 43.794445 -2.988046 9.236282 2.455331 49.194511 -1.622617 -10.590494 41.890709 -8.481059 5.067155 -19.637497 -14.715287 -15.719264 33.746696 13.191997 -0.456811 -1.980915 14.785101 1.368275 
2.180317 192.032135 127.519020 15.791937 -0.610809 15.237319 45.973793 3.438559 -5.319958 -20.839844 0.000000 0.000000 -10.111244 17.729265 13.586952 8.586096 -4.084739 0.307924 -4.754608 -0.109225 -0.002657 -71.674477 -16.283726 19.140596 -48.063152 -28.791161 47.291458 39.361858 -27.183794 22.570181 4.754608 0.109225 -0.002676 88.274254 2.435055 3.941208 46.586212 9.187114 51.576508 -32.822750 57.266319 42.269932 -2.245844 8.787064 1.979889 51.669777 -1.165205 -10.869195 42.006348 -8.399290 5.339017 -18.590233 -14.790148 -15.832114 32.828335 13.006242 -0.408554 -2.390548 15.029923 2.398666 
2.195096 191.918121 127.615601 14.863479 -0.292605 15.801202 46.177235 3.230358 -5.274480 -20.839844 0.000000 0.000000 -9.948190 17.740398 14.943372 8.586096 -4.084739 0.307924 -4.754608 -0.109225 -0.002657 -72.113197 -16.398832 19.282993 -47.708469 -28.537798 47.771214 38.846233 -27.215897 23.268377 4.754608 0.109225 -0.002676 88.245430 1.862300 3.695656 46.735294 9.318177 50.822124 -32.256157 57.500664 41.327065 -1.288774 8.666906 1.801967 53.754585 -0.823240 -11.306914 42.216076 -8.597441 5.890582 -17.360340 -14.507442 -15.911710 32.045162 12.917572 -0.337051 -3.578343 15.503235 2.365864 
2.181370 191.497955 127.653618 13.769555 -0.104335 16.439257 46.063156 3.153228 -5.167466 -20.839844 0.000000 0.000000 -9.763509 17.755476 16.113096 8.586096 -4.084739 0.307924 -4.754608 -0.109225 -0.002657 -71.952347 -15.857780 19.081577 -49.579620 -29.323402 47.900909 38.798374 -26.241455 25.104536 4.754608 0.109225 -0.002676 87.673836 -0.434766 3.002770 49.793072 10.699141 49.881065 -30.233393 56.482864 41.359234 -0.419882 8.948451 1.971309 55.464085 -0.628283 -11.852109 42.552505 -8.944796 6.826912 -16.443247 -13.971568 -15.642177 32.676910 12.896510 -0.462311 -6.243508 14.926400 0.704279 
2.144948 190.799133 127.625641 12.724622 -0.076206 17.053093 45.580467 3.184286 -5.036376 -20.839844 0.000000 0.000000 -9.560157 17.713079 17.066858 8.586096 -4.084739 0.307924 -4.754608 -0.109225 -0.002657 -70.983475 -15.066014 18.857227 -53.209606 -31.249947 47.075596 39.377853 -24.493280 26.560257 4.754608 0.109225 -0.002676 86.652351 -2.776784 2.277561 53.421921 12.302021 49.930721 -30.412777 55.055691 41.923969 0.009562 9.622458 2.391493 57.076385 -0.519373 -12.112180 42.570381 -9.237641 7.132628 -16.298084 -13.358347 -14.866857 35.421280 12.857833 -0.557903 -11.233378 13.280849 -1.789257 
2.101674 189.942474 127.536438 11.836019 -0.210276 17.573084 44.848827 3.320957 -4.823470 -20.839844 0.000000 0.000000 -9.305611 17.537474 17.901257 8.586096 -4.084739 0.307924 -4.754608 -0.109225 -0.002657 -69.472961 -14.327542 18.594357 -58.097065 -33.696899 44.840767 38.889339 -22.599976 27.390741 4.754608 0.109225 -0.002676 85.239586 -3.918995 1.799342 56.165794 13.340454 51.710190 -34.406185 53.883511 43.102238 -0.000814 10.455135 2.968606 58.249069 -0.508107 -12.119059 42.548908 -9.324930 7.050495 -16.823500 -12.594538 -13.765265 38.985168 12.652816 -0.519307 -16.918545 11.450524 -3.891820 
2.061024 189.064178 127.376503 11.113690 -0.488707 17.960560 44.064007 3.529377 -4.513383 -20.839844 0.000000 0.000000 -8.950815 17.249989 18.709221 8.586096 -4.084739 0.307924 -4.754608 -0.109225 -0.002657 -68.130371 -13.695239 18.125210 -63.336147 -35.535427 42.335392 37.532833 -20.983534 28.855227 4.754608 0.109225 -0.002676 83.380348 -4.864412 1.473521 59.613762 14.695116 53.209473 -38.285294 52.257236 44.450012 -0.400921 11.175866 3.507955 58.625759 -0.617590 -12.023258 42.707687 -9.260886 7.058693 -17.770451 -11.852407 -12.682881 42.414223 12.321709 -0.348811 -21.992130 9.867848 -4.680226 
2.014050 188.238647 127.136871 10.499125 -0.816183 18.256826 43.372509 3.777448 -4.099191 -20.839844 0.000000 0.000000 -8.408736 16.929853 19.580311 8.586096 -4.084739 0.307924 -4.754608 -0.109225 -0.002657 -67.135887 -13.520701 17.781727 -67.975700 -36.725811 40.274124 36.851582 -19.472214 30.515038 4.754608 0.109225 -0.002676 81.429604 -6.840907 1.166297 64.404129 16.959991 52.299942 -37.796108 50.197739 45.176533 -1.054546 11.661330 3.893827 58.216339 -0.824420 -11.792652 42.322872 -8.978806 7.344274 -18.817291 -11.336980 -11.921252 45.568169 12.126260 -0.159650 -26.372431 8.734714 -5.020356 
1.952290 187.547729 126.832855 9.855437 -1.125721 18.505463 42.928638 4.039053 -3.621042 -20.839844 0.000000 0.000000 -7.723796 16.672398 20.503248 8.586096 -4.084739 0.307924 -4.754608 -0.109225 -0.002657 -66.314102 -13.770774 17.614056 -71.763054 -37.526642 38.553402 36.813866 -17.862783 31.912115 4.754608 0.109225 -0.002676 79.588455 -9.062682 0.882931 69.065369 19.299450 50.041260 -35.099834 48.123055 45.364902 -1.708663 11.849582 4.108994 56.967575 -1.097313 -11.227542 41.229912 -8.355680 7.514673 -19.555027 -10.786620 -11.347388 48.079422 12.007667 -0.182896 -30.164923 7.884753 -5.647803 
1.877339 186.976624 126.469170 9.113953 -1.369218 18.764572 42.807919 4.279254 -3.122869 -20.839844 0.000000 0.000000 -6.987561 16.535231 21.378397 8.586096 -4.084739 0.307924 -4.754608 -0.109225 -0.002657 -65.741631 -14.321411 17.473421 -74.653793 -37.863533 36.931831 36.328968 -16.265913 32.833416 4.754608 0.109225 -0.002676 78.082016 -10.191935 0.771352 72.217636 20.729202 48.328987 -33.832722 46.326199 45.318104 -2.197296 11.765681 4.135678 55.209442 -1.368242 -10.642577 40.090584 -7.794254 7.439199 -20.027557 -10.135665 -10.830156 49.999058 11.845601 -0.306324 -33.194675 7.062866 -6.196243 
